#N canvas 4 0 1920 966 10;
#X declare -lib SDT;
#X declare -lib SDT;
#X declare -lib SDT;
#X declare -lib SDT;
#X obj 5 4 cnv 16 1100 500 empty empty empty 20 12 0 10 #c6ffc7 #404040 0;
#X obj 243 472 dac~;
#X msg 860 17 Sound Design Toolkit \; (C) 2001 - 2024 \; \; Project SOb - soundobject.org \; Project CLOSED - closed.ircam.fr \; Project NIW - soundobject.org/niw \; Project SkAT-VG - skatvg.eu;
#X obj 939 201 loadbang;
#X msg 48 279 stiffness \$1;
#X msg 183 278 dissipation \$1;
#X obj 323 119 vsl 15 128 1 4 0 0 empty shape empty 0 -9 0 10 #fcfcfc #000000 #000000 0 1;
#X obj 183 119 vsl 15 128 0 40 0 0 empty dissipation empty 0 -9 0 10 #fcfcfc #000000 #000000 0 1;
#X obj 48 121 vsl 15 128 1000 1e+08 1 0 empty stiffness empty 0 -9 0 10 #fcfcfc #000000 #000000 0 1;
#X floatatom 48 259 10 0 0 0 - - - 0;
#X floatatom 183 257 5 0 0 0 - - - 0;
#X floatatom 323 257 5 0 0 0 - - - 0;
#X text 260 328 Args: 1st obj ID \, 2nd obj ID \, n. of outlets;
#X text 573 210 Args: object ID;
#X text 581 275 Args: object ID \, n. of modes \, n. of pickups;
#X obj 48 327 impact~ hammerimp objectimp 2;
#X text 6 98 Impact stiffness;
#X text 136 97 Impact dissipation;
#X msg 323 278 shape \$1;
#X obj 492 183 r hammerimp;
#X obj 429 250 r objectimp;
#X obj 428 210 inertial hammerimp;
#X obj 429 275 modal objectimp 3 1;
#X obj 9 303 r imp;
#X msg 428 157 strike 0 -3;
#X obj 428 118 bng 32 250 50 0 empty empty empty 17 7 0 10 #fcfcfc #000000 #000000;
#X text 291 97 Contact shape;
#X text 426 98 Strike!;
#X text 12 22 impact~ - Simulates an impact between two solid objects;
#X obj 243 441 *~ 1000;
#X obj 282 357 vsl 30 60 100 10000 0 0 empty empty empty 0 -9 0 10 #fcfcfc #000000 #000000 0 1;
#X obj 970 105 declare -lib SDT;
#X obj 878 180 r pd-dsp-started;
#X msg 878 227 \; hammerimp mass 0.01 \; hammerimp fragmentSize 1 \; objectimp freqs 500 1300 1700 \; objectimp decays 0.01 0.005 0.0025 \; objectimp pickup 0 100 100 100 \; objectimp activeModes 3 \; objectimp fragmentSize 1 \; imp contact0 0 \; imp contact1 0 \; stiffness 1e+07 \; dissipation 1 \; shape 1.5 \;;
#X obj 387 9 netreceive -u -b 9000;
#X obj 387 41 unpackOSC;
#X obj 387 73 route /bouncing;
#X obj 4 512 cnv 16 550 450 empty empty empty 20 12 0 10 #e3c6ff #404040 0;
#X obj 11 901 bubble~;
#X msg 181 860 radius \$1;
#X msg 319 860 riseFactor \$1;
#X obj 11 928 dac~;
#X obj 11 672 bng 32 250 50 0 empty empty empty 17 7 0 10 #fcfcfc #000000 #000000;
#X floatatom 319 816 5 0 0 0 - - - 0;
#X obj 181 674 vsl 15 128 0.15 150 1 0 empty radius empty 0 -9 0 10 #fcfcfc #000000 #000000 0 1;
#X obj 319 674 vsl 15 128 0 3 0 0 empty riseFactor empty 0 -9 0 10 #fcfcfc #000000 #000000 0 1;
#X floatatom 181 815 5 0 0 0 - - - 0;
#X obj 181 836 * 0.001;
#X msg 329 524 Sound Design Toolkit \; (C) 2001 - 2024 \; \; Project SOb - soundobject.org \; Project CLOSED - closed.ircam.fr \; Project NIW - soundobject.org/niw \; Project SkAT-VG - skatvg.eu;
#X text 48 521 bubble~ - Bubble model;
#X text 9 652 Press to trigger a bubble;
#X text 178 653 Bubble radius (mm);
#X text 315 653 Rise factor;
#X obj 486 692 loadbang;
#X obj 444 612 declare -lib SDT;
#X obj 440 669 r pd-dsp-started;
#X obj 11 582 unpackOSC;
#X obj 11 614 route /bouncing;
#X msg 440 718 \; radius 5 \; riseFactor 1.7 \;;
#X obj 1110 4 cnv 16 880 500 empty empty empty 20 12 0 10 #ffc7c6 #404040 0;
#X msg 1204 290 blastTime \$1;
#X msg 1306 290 scatterTime \$1;
#X msg 1421 290 dispersion \$1;
#X msg 1517 290 distance \$1;
#X msg 1630 290 waveSpeed \$1;
#X msg 1747 290 windSpeed \$1;
#X floatatom 1204 264 5 0 0 0 - - - 0;
#X floatatom 1306 265 5 0 0 0 - - - 0;
#X floatatom 1421 265 5 0 0 0 - - - 0;
#X floatatom 1517 265 5 0 0 0 - - - 0;
#X floatatom 1630 265 5 0 0 0 - - - 0;
#X floatatom 1747 265 5 0 0 0 - - - 0;
#X obj 1117 128 bng 32 250 50 0 empty empty empty 17 7 0 10 #fcfcfc #000000 #000000;
#X obj 1117 479 dac~;
#X obj 1421 129 vsl 15 128 0 1 0 0 empty dispersion empty 0 -9 0 10 #fcfcfc #000000 #000000 0 1;
#X obj 1630 129 vsl 15 128 0 1000 0 0 empty waveSpeed empty 0 -9 0 10 #fcfcfc #000000 #000000 0 1;
#X obj 1747 129 vsl 15 128 0 1000 0 0 empty windSpeed empty 0 -9 0 10 #fcfcfc #000000 #000000 0 1;
#X obj 1517 129 vsl 15 128 0 1000 0 0 empty distance empty 0 -9 0 10 #fcfcfc #000000 #000000 0 1;
#X obj 1306 129 vsl 15 128 0.1 100 0 0 empty scatterTime empty 0 -9 0 10 #fcfcfc #000000 #000000 0 1;
#X obj 1204 128 vsl 15 128 0.01 1 1 0 empty blastTime empty 0 -9 0 10 #fcfcfc #000000 #000000 0 1;
#X text 1170 108 Blast time (s);
#X text 1269 108 Scatter time (s);
#X text 1387 108 Scatter amount;
#X text 1493 108 Distance (m);
#X text 1116 108 BOOM!;
#X obj 1276 417 *~ 0.5;
#X obj 1117 417 *~ 0.5;
#X floatatom 1150 396 5 0 1 0 - - - 0;
#X text 1122 377 Shock gain;
#X floatatom 1309 396 5 0 1 0 - - - 0;
#X text 1287 378 Wind gain;
#X obj 1117 447 hip~ 10;
#X msg 1763 7 Sound Design Toolkit \; (C) 2001 - 2024 \; \; Project SOb - soundobject.org \; Project CLOSED - closed.ircam.fr \; Project NIW - soundobject.org/niw \; Project SkAT-VG - skatvg.eu;
#X text 1254 43 explosion~ - Explosion model;
#X msg 1865 211 \; blastTime 0.1 \; scatterTime 4 \; dispersion 0.5 \; distance 10 \; waveSpeed 340.27 \; windSpeed 600 \;;
#X text 1586 108 Shock speed (m/s);
#X text 1712 108 Wind speed (m/s);
#X obj 1924 189 loadbang;
#X text 1304 341 Args: Reverb buffer length \, delay buffer length;
#X text 1303 353 (set them large for long reverbs and distances);
#X obj 1117 344 explosion~ 44100 441000;
#X obj 1873 95 declare -lib SDT;
#X obj 1865 167 r pd-dsp-started;
#X obj 1117 45 unpackOSC;
#X obj 1117 77 route /bouncing;
#X obj 1117 13 netreceive -u -b 9001;
#X obj 11 550 netreceive -u -b 9003;
#X obj 559 512 cnv 16 900 650 empty empty empty 20 12 0 10 #feffc6 #404040 0;
#X obj 872 1076 dac~;
#X text 736 1129 Args: object ID;
#X text 1029 1128 Args: object ID \, n. of modes \, n. of pickups;
#X text 891 939 Args: 1st obj ID \, 2nd obj ID \, n. of outlets;
#X msg 1089 519 Sound Design Toolkit \; (C) 2001 - 2024 \; \; Project SOb - soundobject.org \; Project CLOSED - closed.ircam.fr \; Project NIW - soundobject.org/niw \; Project SkAT-VG - skatvg.eu;
#X obj 818 607 vsl 15 128 1e-05 1 1 0 empty grain empty 0 -9 0 10 #fcfcfc #000000 #000000 0 1;
#X obj 930 607 vsl 15 128 0 200 0 0 empty depth empty 0 -9 0 10 #fcfcfc #000000 #000000 0 1;
#X obj 689 606 vsl 15 128 0 10 0 0 empty velocity empty 0 -9 0 10 #fcfcfc #000000 #000000 0 1;
#X floatatom 930 743 5 0 0 0 - - - 0;
#X floatatom 818 743 6 0 0 0 - - - 0;
#X floatatom 689 743 5 0 0 0 - - - 0;
#X obj 1168 683 loadbang;
#X obj 917 968 vsl 30 64 1000 100000 0 0 empty gain empty 0 -9 0 10 #fcfcfc #000000 #000000 0 1;
#X obj 689 884 rolling~;
#X obj 730 911 r ro;
#X msg 601 763 mass \$1;
#X obj 621 1101 r hammerro;
#X obj 889 1101 r objectro;
#X obj 601 607 vsl 15 128 0.001 1 0 0 empty mass empty 0 -9 0 10 #fcfcfc #000000 #000000 0 1;
#X floatatom 601 744 5 0 0 0 - - - 0;
#X msg 689 762 velocity \$1;
#X text 559 569 Rolling mass (Kg) and velocity (m/s);
#X msg 818 762 grain \$1;
#X text 794 569 Surface grain;
#X msg 930 762 depth \$1;
#X text 905 570 Grain depth;
#X obj 628 796 noise~;
#X obj 628 823 lop~ 20;
#X obj 628 851 *~ 10;
#X msg 623 1061 strike 0 0;
#X obj 872 1043 *~ 50000;
#X obj 689 939 impact~ hammerro objectro 2;
#X obj 601 1128 inertial hammerro;
#X obj 889 1128 modal objectro 3 1;
#X text 576 530 rolling~ - Generates a stochastic sequence of impacts to form a rolling sound, f 77;
#X obj 1198 609 declare -lib SDT;
#X obj 1107 662 r pd-dsp-started;
#X msg 1107 709 \; hammerro fragmentSize 1 \; objectro freqs 500 1300 1700 \; objectro decays 0.03 0.02 0.01 \; objectro pickup 0 100 100 100 \; objectro activeModes 3 \; objectro fragmentSize 1 \; ro stiffness 1e+08 \; ro dissipation 0.8 \; ro shape 1.5 \; ro contact0 0 \; ro contact1 0 \; mass 0.01 \; velocity 0 \; grain 0.001 \; depth 100 \; gain 50000 \;;
#X obj 900 826 unpackOSC;
#X obj 922 798 netreceive -u -b 9002;
#X obj 878 853 route /rolling/on /rolling/velocity;
#X msg 937 891 velocity \$1;
#X obj 1467 513 cnv 16 200 200 empty empty empty 20 12 0 10 #e0e0e0 #404040 0;
#X obj 1485 547 loadbang;
#X text 1477 518 Auto enable DSP;
#X msg 1485 624 \; pd dsp 1;
#X obj 1485 586 delay 100;
#X connect 3 0 33 0;
#X connect 4 0 15 0;
#X connect 5 0 15 0;
#X connect 6 0 11 0;
#X connect 7 0 10 0;
#X connect 8 0 9 0;
#X connect 9 0 4 0;
#X connect 10 0 5 0;
#X connect 11 0 18 0;
#X connect 15 1 29 0;
#X connect 18 0 15 0;
#X connect 19 0 21 0;
#X connect 20 0 22 0;
#X connect 23 0 15 0;
#X connect 24 0 21 0;
#X connect 25 0 24 0;
#X connect 29 0 1 0;
#X connect 29 0 1 1;
#X connect 30 0 29 1;
#X connect 32 0 33 0;
#X connect 34 0 35 0;
#X connect 35 0 36 0;
#X connect 36 0 25 0;
#X connect 38 0 41 0;
#X connect 38 0 41 1;
#X connect 39 0 38 0;
#X connect 40 0 38 0;
#X connect 42 0 38 0;
#X connect 43 0 40 0;
#X connect 44 0 46 0;
#X connect 45 0 43 0;
#X connect 46 0 47 0;
#X connect 47 0 39 0;
#X connect 53 0 58 0;
#X connect 55 0 58 0;
#X connect 56 0 57 0;
#X connect 57 0 42 0;
#X connect 60 0 100 0;
#X connect 61 0 100 0;
#X connect 62 0 100 0;
#X connect 63 0 100 0;
#X connect 64 0 100 0;
#X connect 65 0 100 0;
#X connect 66 0 60 0;
#X connect 67 0 61 0;
#X connect 68 0 62 0;
#X connect 69 0 63 0;
#X connect 70 0 64 0;
#X connect 71 0 65 0;
#X connect 72 0 100 0;
#X connect 74 0 68 0;
#X connect 75 0 70 0;
#X connect 76 0 71 0;
#X connect 77 0 69 0;
#X connect 78 0 67 0;
#X connect 79 0 66 0;
#X connect 85 0 91 0;
#X connect 86 0 91 0;
#X connect 87 0 86 1;
#X connect 89 0 85 1;
#X connect 91 0 73 0;
#X connect 91 0 73 1;
#X connect 97 0 94 0;
#X connect 100 0 86 0;
#X connect 100 1 85 0;
#X connect 102 0 94 0;
#X connect 103 0 104 0;
#X connect 104 0 72 0;
#X connect 105 0 103 0;
#X connect 106 0 56 0;
#X connect 113 0 117 0;
#X connect 114 0 116 0;
#X connect 115 0 118 0;
#X connect 116 0 132 0;
#X connect 117 0 130 0;
#X connect 118 0 128 0;
#X connect 119 0 145 0;
#X connect 120 0 138 1;
#X connect 121 0 139 0;
#X connect 122 0 139 0;
#X connect 123 0 121 0;
#X connect 123 0 140 0;
#X connect 124 0 140 0;
#X connect 125 0 141 0;
#X connect 126 0 127 0;
#X connect 127 0 123 0;
#X connect 128 0 121 0;
#X connect 130 0 121 0;
#X connect 132 0 121 0;
#X connect 134 0 135 0;
#X connect 135 0 136 0;
#X connect 136 0 121 0;
#X connect 137 0 140 0;
#X connect 138 0 108 0;
#X connect 138 0 108 1;
#X connect 139 1 138 0;
#X connect 144 0 145 0;
#X connect 146 0 148 0;
#X connect 147 0 146 0;
#X connect 148 1 149 0;
#X connect 149 0 121 0;
#X connect 151 0 154 0;
#X connect 154 0 153 0;
