#N canvas 67 207 1920 966 10;
#X obj 441 701 dac~;
#X text 305 754 Args: object ID;
#X text 598 753 Args: object ID \, n. of modes \, n. of pickups;
#X text 388 505 Args: 1st obj ID \, 2nd obj ID \, n. of outlets;
#X msg 658 144 Sound Design Toolkit \; (C) 2001 - 2016 \; \; Project SOb - soundobject.org \; Project CLOSED - closed.ircam.fr \; Project NIW - soundobject.org/niw \; Project SkAT-VG - skatvg.eu;
#X obj 387 232 vsl 15 128 1e-05 1 1 0 empty grain empty 0 -9 0 10 #fcfcfc #000000 #000000 0 1;
#X obj 499 224 vsl 15 128 0 200 0 0 empty depth empty 0 -9 0 10 #fcfcfc #000000 #000000 0 1;
#X obj 258 231 vsl 15 128 0 10 0 0 empty velocity empty 0 -9 0 10 #fcfcfc #000000 #000000 0 1;
#X floatatom 499 368 5 0 0 0 - - - 0;
#X floatatom 387 368 6 0 0 0 - - - 0;
#X floatatom 258 368 5 0 0 0 - - - 0;
#X obj 603 241 loadbang;
#X obj 539 534 vsl 30 64 1000 100000 0 0 empty gain empty 0 -9 0 10 #fcfcfc #000000 #000000 0 1;
#X obj 258 509 rolling~;
#X obj 299 536 r ro;
#X msg 170 388 mass \$1;
#X obj 190 726 r hammerro;
#X obj 458 726 r objectro;
#X obj 170 232 vsl 15 128 0.001 1 0 0 empty mass empty 0 -9 0 10 #fcfcfc #000000 #000000 0 1;
#X floatatom 170 369 5 0 0 0 - - - 0;
#X msg 258 387 velocity \$1;
#X text 128 194 Rolling mass (Kg) and velocity (m/s);
#X msg 387 387 grain \$1;
#X text 363 194 Surface grain;
#X msg 499 387 depth \$1;
#X text 474 195 Grain depth;
#X obj 197 421 noise~;
#X obj 197 448 lop~ 20;
#X obj 197 476 *~ 10;
#X msg 192 686 strike 0 0;
#X obj 430 612 *~ 50000;
#X obj 258 564 impact~ hammerro objectro 2;
#X obj 170 753 inertial hammerro;
#X obj 458 753 modal objectro 3 1;
#X text 48 3 rolling~ - Generates a stochastic sequence of impacts to form a rolling sound, f 77;
#X obj 736 577 unpackOSC;
#X obj 741 549 netreceive -u -b 9002;
#X obj 449 665 *~;
#X obj 686 668 * 1;
#X obj 599 716 line~;
#X obj 662 695 pack f 50;
#X obj 716 606 route /rolling/on /rolling/velocity;
#X msg 623 561 0;
#X obj 592 323 t b b;
#X msg 812 663 velocity \$1;
#X msg 553 431 \; pd dsp 1;
#X msg 676 334 \; hammerro fragmentSize 1 \; objectro freqs 500 1300 1700 \; objectro decays 0.03 0.02 0.01 \; objectro pickup 0 100 100 100 \; objectro activeModes 3 \; objectro fragmentSize 1 \; ro stiffness 1e+08 \; ro dissipation 0.8 \; ro shape 1.5 \; ro contact0 0 \; ro contact1 0 \; mass 0.01 \; velocity 0 \; grain 0.001 \; depth 100 \; gain 50000 \;;
#X connect 5 0 9 0;
#X connect 6 0 8 0;
#X connect 7 0 10 0;
#X connect 8 0 24 0;
#X connect 9 0 22 0;
#X connect 10 0 20 0;
#X connect 11 0 46 0;
#X connect 11 0 43 0;
#X connect 12 0 30 1;
#X connect 13 0 31 0;
#X connect 14 0 31 0;
#X connect 15 0 13 0;
#X connect 15 0 32 0;
#X connect 16 0 32 0;
#X connect 17 0 33 0;
#X connect 18 0 19 0;
#X connect 19 0 15 0;
#X connect 20 0 13 0;
#X connect 22 0 13 0;
#X connect 24 0 13 0;
#X connect 26 0 27 0;
#X connect 27 0 28 0;
#X connect 28 0 13 0;
#X connect 29 0 32 0;
#X connect 30 0 37 0;
#X connect 31 1 30 0;
#X connect 35 0 41 0;
#X connect 36 0 35 0;
#X connect 37 0 0 0;
#X connect 37 0 0 1;
#X connect 38 0 40 0;
#X connect 39 0 37 1;
#X connect 40 0 39 0;
#X connect 41 0 38 0;
#X connect 41 1 44 0;
#X connect 42 0 40 0;
#X connect 43 0 45 0;
#X connect 43 1 42 0;
#X connect 44 0 13 0;
