#N canvas 533 284 450 276 12;
#X obj 9 384 bubble~;
#X msg 179 343 radius \$1;
#X msg 317 343 riseFactor \$1;
#X obj 9 411 dac~;
#X obj 9 155 bng 32 250 50 0 empty empty empty 17 7 0 10 #fcfcfc #000000 #000000;
#X floatatom 317 299 5 0 0 0 - - - 0;
#X obj 179 157 vsl 15 128 0.15 150 1 0 empty radius empty 0 -9 0 10 #fcfcfc #000000 #000000 0 1;
#X obj 317 157 vsl 15 128 0 3 0 0 empty riseFactor empty 0 -9 0 10 #fcfcfc #000000 #000000 0 1;
#X floatatom 179 298 5 0 0 0 - - - 0;
#X obj 179 319 * 0.001;
#X msg 327 7 Sound Design Toolkit \; (C) 2001 - 2016 \; \; Project SOb - soundobject.org \; Project CLOSED - closed.ircam.fr \; Project NIW - soundobject.org/niw \; Project SkAT-VG - skatvg.eu;
#X text 46 4 bubble~ - Bubble model;
#X text 7 135 Press to trigger a bubble;
#X text 176 136 Bubble radius (mm);
#X text 313 136 Rise factor;
#X obj 440 139 loadbang;
#X msg 440 165 \; radius 5 \; riseFactor 1.7 \;;
#X obj 35 58 unpackOSC;
#X obj 30 94 route /win;
#X obj 40 30 netreceive -u -b 9003;
#X connect 0 0 3 0;
#X connect 0 0 3 1;
#X connect 1 0 0 0;
#X connect 2 0 0 0;
#X connect 4 0 0 0;
#X connect 5 0 2 0;
#X connect 6 0 8 0;
#X connect 7 0 5 0;
#X connect 8 0 9 0;
#X connect 9 0 1 0;
#X connect 15 0 16 0;
#X connect 17 0 18 0;
#X connect 18 0 4 0;
#X connect 19 0 17 0;
